<svg xmlns="http://www.w3.org/2000/svg" version="1.0" preserveAspectRatio="xMidYMid meet" viewBox="129.32 110.1 367.86 379.9">

<g transform="translate(0.000000,600.000000) scale(0.100000,-0.100000)" fill="#000000" stroke="none">
<path d="M2655 4884 c-110 -27 -202 -80 -290 -168 -90 -91 -128 -154 -175 -294 -45 -136 -58 -272 -37 -399 25 -155 56 -212 101 -186 8 4 78 97 156 206 l142 197 41 -31 c309 -232 642 -366 961 -386 89 -5 109 -3 130 11 15 9 26 23 26 32 0 38 -98 205 -177 303 -24 29 -25 33 -8 28 11 -3 51 -14 88 -23 67 -16 69 -16 89 3 20 20 20 22 3 79 -58 201 -194 329 -387 366 -38 7 -68 15 -68 18 0 3 29 22 65 41 116 61 98 108 -49 129 -121 18 -262 9 -356 -24 -41 -15 -83 -29 -92 -32 -15 -6 -16 -1 -4 48 18 80 9 98 -51 97 -26 0 -75 -7 -108 -15z"/>
<path d="M4177 4203 c-21 -20 0 -54 80 -135 l88 -88 -94 -94 c-66 -66 -92 -99 -88 -110 16 -42 39 -29 153 85 63 62 114 118 114 123 0 5 -48 58 -107 117 -98 100 -128 121 -146 102z"/>
<path d="M4544 3815 c-4 -8 -4 -22 0 -30 4 -13 37 -15 204 -15 165 0 202 3 212 15 10 12 10 18 0 30 -10 12 -47 15 -212 15 -167 0 -200 -2 -204 -15z"/>
<path d="M2124 3772 c-60 -39 -55 -216 9 -321 21 -35 99 -91 127 -91 14 0 18 -14 23 -72 7 -76 29 -154 66 -225 16 -32 18 -44 8 -50 -6 -4 -129 -69 -272 -145 -278 -146 -345 -194 -411 -292 -41 -63 -359 -904 -375 -994 -28 -160 45 -310 214 -438 l59 -44 1320 0 c1172 0 1324 2 1353 16 51 24 178 147 207 200 14 27 32 69 38 94 16 60 15 175 -3 230 -34 107 -312 840 -339 894 -33 65 -102 145 -163 186 -39 26 -106 62 -400 215 -82 43 -151 79 -153 81 -2 1 5 19 16 41 33 63 60 158 68 231 l6 70 37 11 c90 27 151 135 151 269 0 85 -13 117 -46 110 -17 -3 -19 -13 -20 -93 -1 -141 -45 -217 -135 -231 -22 -4 -43 -14 -48 -23 -5 -9 -11 -52 -14 -96 -15 -231 -173 -423 -402 -491 -84 -24 -221 -23 -305 5 -197 63 -354 237 -380 422 -6 35 -13 88 -17 118 l-8 54 -48 12 c-58 15 -89 43 -115 103 -33 77 -36 124 -14 175 25 57 6 96 -34 69z m345 -871 c70 -68 188 -133 282 -156 82 -19 219 -19 294 0 100 25 200 81 276 152 l69 65 282 -148 c305 -161 354 -197 410 -299 40 -76 338 -876 350 -944 23 -121 -33 -251 -146 -339 -87 -70 -93 -72 -205 -72 l-101 0 0 233 0 233 89 52 c92 55 110 74 90 98 -18 21 -33 17 -104 -26 -36 -22 -68 -40 -70 -40 -3 0 -5 138 -5 308 0 180 -4 322 -10 344 -14 48 -55 97 -97 114 -48 21 -1898 21 -1946 0 -38 -16 -84 -66 -95 -104 -4 -15 -7 -170 -7 -344 0 -175 -3 -318 -7 -318 -4 0 -37 18 -73 40 -74 45 -90 48 -105 21 -13 -25 -4 -34 99 -96 l81 -50 0 -222 c0 -123 0 -226 0 -230 0 -10 -164 -16 -205 -9 -16 4 -64 34 -105 69 -59 49 -82 77 -110 131 -32 63 -35 76 -35 155 l1 86 168 448 c183 487 206 532 302 600 35 25 560 307 571 307 2 0 30 -26 62 -59z m1397 -499 c12 -9 27 -27 33 -39 8 -15 11 -197 11 -612 l0 -591 -1010 0 -1010 0 0 593 c1 634 0 625 51 653 19 11 203 13 964 13 876 1 941 -1 961 -17z"/>
<path d="M2333 3744 c-3 -9 8 -62 26 -118 23 -75 39 -108 61 -128 30 -28 31 -28 180 -28 149 0 150 0 180 28 22 20 35 48 53 112 l23 85 43 0 44 0 28 -90 c42 -134 44 -135 233 -135 148 0 154 1 179 24 27 25 78 172 81 231 l1 30 -563 3 c-509 2 -563 1 -569 -14z"/>
<path d="M3896 3514 c-22 -22 -23 -320 -2 -350 12 -15 18 -17 33 -8 16 10 18 30 21 182 2 161 1 172 -17 182 -15 7 -23 6 -35 -6z"/>
<path d="M4120 3517 c-20 -7 -44 -26 -58 -47 -22 -32 -23 -43 -20 -142 3 -105 4 -108 34 -139 61 -60 157 -42 190 36 18 45 19 185 0 230 -24 56 -85 82 -146 62z m72 -74 c15 -13 18 -32 18 -104 0 -93 -11 -119 -50 -119 -39 0 -50 27 -50 117 0 66 4 91 17 105 20 22 41 23 65 1z"/>
<path d="M4387 3519 c-15 -9 -17 -29 -17 -183 0 -145 2 -175 15 -180 8 -3 22 -3 30 0 13 5 15 35 15 179 0 181 -5 205 -43 184z"/>
<path d="M4601 3517 c-58 -20 -75 -54 -79 -160 -3 -68 0 -102 11 -129 34 -81 130 -100 191 -39 30 30 31 34 34 135 3 81 0 110 -12 135 -29 54 -87 78 -145 58z m71 -74 c15 -13 18 -32 18 -108 0 -97 -7 -115 -46 -115 -43 0 -54 24 -54 117 0 66 4 91 17 105 20 22 41 23 65 1z"/>
<path d="M4170 2991 c-6 -11 -10 -87 -10 -175 0 -127 3 -157 16 -170 19 -19 26 -20 42 -4 8 8 12 62 12 178 0 166 -5 190 -37 190 -7 0 -17 -9 -23 -19z"/>
<path d="M4374 3000 c-11 -4 -33 -22 -47 -40 -25 -30 -27 -38 -27 -133 0 -61 5 -112 13 -126 40 -79 155 -87 203 -14 23 36 22 234 -1 269 -28 43 -94 63 -141 44z m80 -82 c24 -34 22 -168 -3 -199 -16 -20 -23 -22 -47 -14 -29 10 -29 11 -32 109 -2 64 1 103 9 112 17 21 56 17 73 -8z"/>
<path d="M4662 2990 c-50 -30 -64 -76 -60 -186 2 -75 7 -98 24 -121 48 -64 146 -61 191 6 20 30 23 46 23 130 0 108 -16 148 -69 176 -40 20 -69 19 -109 -5z m92 -66 c23 -23 23 -180 -1 -206 -20 -22 -41 -23 -65 -1 -15 13 -18 32 -18 104 0 93 11 119 50 119 10 0 26 -7 34 -16z"/>
<path d="M4923 3003 c-20 -8 -18 -346 2 -363 12 -10 18 -10 30 0 23 19 22 355 -1 364 -9 3 -16 6 -17 5 -1 0 -8 -3 -14 -6z"/>
</g>
</svg>